<svg width="86" height="86" viewBox="0 0 86 86" fill="none" xmlns="http://www.w3.org/2000/svg">
<g filter="url(#filter0_d_13_3531)">
<path d="M82 39C82 58.6976 67.3984 74.9817 48.4312 77.625C46.6571 77.872 44.8426 78 43.0011 78C40.8744 78 38.7882 77.8293 36.7536 77.5014C18.1816 74.5123 4 58.4124 4 39C4 17.4609 21.4603 0 42.9989 0C64.5374 0 81.9978 17.4609 81.9978 39H82Z" fill="#00E510"/>
<path d="M50.2458 50.5456C40.1424 50.5434 31.9209 42.3216 31.9186 32.2202C31.9231 29.66 34.0049 27.5759 36.5627 27.5759C36.8255 27.5759 37.086 27.5984 37.333 27.6433C37.8809 27.7331 38.3997 27.9195 38.8803 28.198C38.9499 28.2384 38.9971 28.3058 39.0083 28.3844L40.075 35.115C40.0885 35.1936 40.0638 35.2722 40.0121 35.3305C39.4215 35.9841 38.6692 36.4534 37.8338 36.6892L37.4318 36.8038L37.5845 37.1945C38.9634 40.7002 41.766 43.5051 45.2738 44.884L45.6646 45.0368L45.7768 44.6325C46.0126 43.7949 46.482 43.0425 47.1355 42.4541C47.1827 42.4115 47.2455 42.3868 47.3107 42.3868C47.3241 42.3868 47.3399 42.3868 47.3533 42.3913L54.0815 43.458C54.1623 43.4715 54.2274 43.5164 54.2701 43.586C54.5463 44.0666 54.7327 44.5876 54.8248 45.1333C54.8674 45.3781 54.8899 45.6341 54.8899 45.9036C54.8899 48.4616 52.8059 50.5434 50.2458 50.5479V50.5456Z" fill="#FDFDFD"/>
<path d="M68.162 36.7835C67.6163 30.6256 64.7957 24.9146 60.2189 20.7038C55.6153 16.466 49.6394 14.1327 43.3919 14.1327C29.6796 14.1327 18.523 25.2897 18.523 39.0023C18.523 43.6039 19.7918 48.0887 22.1947 51.9941L16.8365 63.8585L33.9981 62.0304C36.9827 63.2521 40.1424 63.872 43.3919 63.872C44.2475 63.872 45.1233 63.8271 46.0014 63.7372C46.7762 63.6541 47.5577 63.5328 48.3279 63.3779C59.8125 61.058 68.1957 50.8645 68.2608 39.1348V39.0023C68.2608 38.2545 68.2271 37.5089 68.1598 36.7858L68.162 36.7835ZM34.6561 56.8225L25.1613 57.8331L27.9976 51.5517L27.4317 50.7904C27.389 50.7342 27.3486 50.6781 27.3014 50.6152C24.8401 47.2173 23.5399 43.2019 23.5399 39.0001C23.5399 28.052 32.4463 19.1475 43.3919 19.1475C53.648 19.1475 62.3389 27.1492 63.1765 37.3629C63.2215 37.9109 63.2439 38.4611 63.2439 39.0023C63.2439 39.1573 63.2417 39.31 63.2372 39.4717C63.0261 48.6299 56.6281 56.407 47.6789 58.3878C46.9962 58.5405 46.2956 58.655 45.5972 58.7314C44.8718 58.8145 44.1285 58.8549 43.3896 58.8549C40.7599 58.8549 38.2043 58.3451 35.7879 57.339C35.5207 57.2312 35.258 57.1167 35.0109 56.9977L34.6516 56.8247L34.6561 56.8225Z" fill="#FDFDFD"/>
</g>
<defs>
<filter id="filter0_d_13_3531" x="0" y="0" width="86" height="86" filterUnits="userSpaceOnUse" color-interpolation-filters="sRGB">
<feFlood flood-opacity="0" result="BackgroundImageFix"/>
<feColorMatrix in="SourceAlpha" type="matrix" values="0 0 0 0 0 0 0 0 0 0 0 0 0 0 0 0 0 0 127 0" result="hardAlpha"/>
<feOffset dy="4"/>
<feGaussianBlur stdDeviation="2"/>
<feComposite in2="hardAlpha" operator="out"/>
<feColorMatrix type="matrix" values="0 0 0 0 0 0 0 0 0 0 0 0 0 0 0 0 0 0 0.25 0"/>
<feBlend mode="normal" in2="BackgroundImageFix" result="effect1_dropShadow_13_3531"/>
<feBlend mode="normal" in="SourceGraphic" in2="effect1_dropShadow_13_3531" result="shape"/>
</filter>
</defs>
</svg>
