<svg width="86" height="86" viewBox="0 0 86 86" fill="none" xmlns="http://www.w3.org/2000/svg">
<g filter="url(#filter0_d_13_3527)">
<path d="M82 39.0011C82 58.6982 67.398 74.9818 48.4303 77.625C46.6561 77.872 44.8415 78 43 78C40.8733 78 38.7869 77.8293 36.7523 77.5015C18.1843 74.5124 4 58.4107 4 38.9989C4 17.4603 21.4608 0 43 0C64.5392 0 82 17.4603 82 38.9989V39.0011Z" fill="#FF0209"/>
<path d="M67.7844 30.847C67.4767 27.8557 66.8097 24.5522 64.3574 22.8141C62.4552 21.4666 59.9579 21.4173 57.6268 21.4195C52.6973 21.424 47.7679 21.4285 42.8384 21.433C38.0976 21.4375 33.3568 21.442 28.616 21.4464C26.6352 21.4464 24.7106 21.2937 22.8713 22.1494C21.2903 22.8859 20.0551 24.285 19.314 25.8413C18.2809 28.0084 18.0631 30.4607 17.9396 32.8569C17.7105 37.218 17.7352 41.5926 18.0115 45.9493C18.2113 49.1315 18.7211 52.646 21.1802 54.6739C23.3609 56.4704 26.4376 56.558 29.2627 56.5603C38.2368 56.567 47.2109 56.5737 56.185 56.5827C57.3348 56.5827 58.5363 56.5625 59.7086 56.4345C62.0173 56.1852 64.2159 55.525 65.6981 53.816C67.1938 52.0936 67.5778 49.6929 67.8069 47.4225C68.3593 41.916 68.3526 36.3512 67.7844 30.847ZM37.6484 46.7241V31.2781L51.0265 39.0011L37.6484 46.7241Z" fill="white"/>
</g>
<defs>
<filter id="filter0_d_13_3527" x="0" y="0" width="86" height="86" filterUnits="userSpaceOnUse" color-interpolation-filters="sRGB">
<feFlood flood-opacity="0" result="BackgroundImageFix"/>
<feColorMatrix in="SourceAlpha" type="matrix" values="0 0 0 0 0 0 0 0 0 0 0 0 0 0 0 0 0 0 127 0" result="hardAlpha"/>
<feOffset dy="4"/>
<feGaussianBlur stdDeviation="2"/>
<feComposite in2="hardAlpha" operator="out"/>
<feColorMatrix type="matrix" values="0 0 0 0 0 0 0 0 0 0 0 0 0 0 0 0 0 0 0.25 0"/>
<feBlend mode="normal" in2="BackgroundImageFix" result="effect1_dropShadow_13_3527"/>
<feBlend mode="normal" in="SourceGraphic" in2="effect1_dropShadow_13_3527" result="shape"/>
</filter>
</defs>
</svg>
