<svg width="86" height="85" viewBox="0 0 86 85" fill="none" xmlns="http://www.w3.org/2000/svg">
<g filter="url(#filter0_d_13_3526)">
<path d="M39 0C17.4525 0 0 17.4623 0 39C0 56.2347 11.1735 70.85 26.6662 76.0012C28.6162 76.3685 29.3312 75.1627 29.3312 74.126C29.3312 73.1997 29.2988 70.746 29.2825 67.496C18.434 69.849 16.146 62.2635 16.146 62.2635C14.3715 57.7622 11.8072 56.5597 11.8072 56.5597C8.2745 54.1417 12.0803 54.1905 12.0803 54.1905C15.9965 54.4635 18.0537 58.2075 18.0537 58.2075C21.5312 64.1712 27.183 62.4487 29.4125 61.451C29.7635 58.929 30.7678 57.2097 31.8825 56.2347C23.2213 55.2597 14.118 51.9058 14.118 36.9623C14.118 32.7048 15.6293 29.2272 18.1317 26.4972C17.693 25.5125 16.3768 21.5475 18.473 16.1753C18.473 16.1753 21.7393 15.1288 29.198 20.1728C32.318 19.305 35.633 18.876 38.948 18.8565C42.263 18.876 45.578 19.305 48.698 20.1728C56.108 15.1288 59.3742 16.1753 59.3742 16.1753C61.4705 21.5475 60.1542 25.5125 59.7642 26.4972C62.2505 29.2272 63.7617 32.7048 63.7617 36.9623C63.7617 51.9448 54.6455 55.2435 45.968 56.2022C47.333 57.3722 48.6005 59.7642 48.6005 63.4172C48.6005 68.6367 48.5518 72.8292 48.5518 74.0967C48.5518 75.1205 49.2342 76.3392 51.233 75.9492C66.8363 70.8337 78 56.2088 78 39C78 17.4623 60.5377 0 39 0" fill="#282828"/>
</g>
<defs>
<filter id="filter0_d_13_3526" x="0" y="0" width="86" height="84.0686" filterUnits="userSpaceOnUse" color-interpolation-filters="sRGB">
<feFlood flood-opacity="0" result="BackgroundImageFix"/>
<feColorMatrix in="SourceAlpha" type="matrix" values="0 0 0 0 0 0 0 0 0 0 0 0 0 0 0 0 0 0 127 0" result="hardAlpha"/>
<feOffset dx="4" dy="4"/>
<feGaussianBlur stdDeviation="2"/>
<feComposite in2="hardAlpha" operator="out"/>
<feColorMatrix type="matrix" values="0 0 0 0 0 0 0 0 0 0 0 0 0 0 0 0 0 0 0.25 0"/>
<feBlend mode="normal" in2="BackgroundImageFix" result="effect1_dropShadow_13_3526"/>
<feBlend mode="normal" in="SourceGraphic" in2="effect1_dropShadow_13_3526" result="shape"/>
</filter>
</defs>
</svg>
