<svg width="86" height="86" viewBox="0 0 86 86" fill="none" xmlns="http://www.w3.org/2000/svg">
<g filter="url(#filter0_d_13_3520)">
<path d="M82 39.0011C82 58.6982 67.398 74.9818 48.4303 77.625C46.6561 77.872 44.8415 78 43 78C40.8732 78 38.7869 77.8293 36.7523 77.5015C18.1843 74.5124 4 58.4107 4 38.9989C4 17.4603 21.4608 0 43 0C64.5391 0 82 17.4603 82 38.9989V39.0011Z" fill="#007EBB"/>
<path d="M22.9767 25.8301C21.9369 24.8645 21.4182 23.6698 21.4182 22.2482C21.4182 20.8267 21.9369 19.5781 22.9767 18.6124C24.0165 17.6468 25.355 17.1639 26.9966 17.1639C28.6383 17.1639 29.9229 17.6468 30.9604 18.6124C32.0002 19.5781 32.519 20.7908 32.519 22.2482C32.519 23.7057 32.0002 24.8645 30.9604 25.8301C29.9206 26.7958 28.6001 27.2786 26.9966 27.2786C25.3932 27.2786 24.0165 26.7958 22.9767 25.8301ZM31.6431 31.368V60.9596H22.294V31.368H31.6431Z" fill="#FEFFFC"/>
<path d="M62.7717 34.2896C64.8086 36.5017 65.8282 39.5401 65.8282 43.4072V60.4386H56.9462V44.6086C56.9462 42.6594 56.4409 41.1435 55.4303 40.0633C54.4197 38.9831 53.061 38.4442 51.3543 38.4442C49.6475 38.4442 48.2888 38.9854 47.2782 40.0633C46.2676 41.1435 45.7623 42.6594 45.7623 44.6086V60.4386H36.8286V31.2871H45.7623V35.1542C46.6673 33.8652 47.8868 32.8479 49.4207 32.0978C50.9523 31.35 52.677 30.975 54.5926 30.975C58.0062 30.975 60.7326 32.0821 62.7695 34.2919L62.7717 34.2896Z" fill="#FEFFFC"/>
</g>
<defs>
<filter id="filter0_d_13_3520" x="0" y="0" width="86" height="86" filterUnits="userSpaceOnUse" color-interpolation-filters="sRGB">
<feFlood flood-opacity="0" result="BackgroundImageFix"/>
<feColorMatrix in="SourceAlpha" type="matrix" values="0 0 0 0 0 0 0 0 0 0 0 0 0 0 0 0 0 0 127 0" result="hardAlpha"/>
<feOffset dy="4"/>
<feGaussianBlur stdDeviation="2"/>
<feComposite in2="hardAlpha" operator="out"/>
<feColorMatrix type="matrix" values="0 0 0 0 0 0 0 0 0 0 0 0 0 0 0 0 0 0 0.25 0"/>
<feBlend mode="normal" in2="BackgroundImageFix" result="effect1_dropShadow_13_3520"/>
<feBlend mode="normal" in="SourceGraphic" in2="effect1_dropShadow_13_3520" result="shape"/>
</filter>
</defs>
</svg>
